<svg xmlns="http://www.w3.org/2000/svg" viewBox="0 0 600 400">
  <!-- Background -->
  <rect width="600" height="400" fill="#E8F5E8"/>
  
  <!-- Stage/Platform -->
  <rect x="0" y="300" width="600" height="100" fill="#8B4513"/>
  <rect x="0" y="295" width="600" height="10" fill="#A0522D"/>
  
  <!-- Backdrop -->
  <rect x="50" y="100" width="500" height="200" fill="#4169E1" rx="10"/>
  <rect x="60" y="110" width="480" height="180" fill="#6495ED" rx="8"/>
  
  <!-- Banner -->
  <rect x="100" y="130" width="400" height="50" fill="#FFD700" rx="5"/>
  <text x="300" y="155" text-anchor="middle" fill="#333" font-family="Arial" font-size="18" font-weight="bold">WISUDA TK DARUSSALAM</text>
  <text x="300" y="170" text-anchor="middle" fill="#333" font-family="Arial" font-size="12">Angkatan 2024</text>
  
  <!-- Balloons -->
  <ellipse cx="80" cy="120" rx="8" ry="12" fill="#FF6B6B"/>
  <line x1="80" y1="132" x2="80" y2="160" stroke="#333" stroke-width="1"/>
  
  <ellipse cx="520" cy="115" rx="8" ry="12" fill="#4ECDC4"/>
  <line x1="520" y1="127" x2="520" y2="155" stroke="#333" stroke-width="1"/>
  
  <ellipse cx="100" cy="110" rx="8" ry="12" fill="#FFE66D"/>
  <line x1="100" y1="122" x2="100" y2="150" stroke="#333" stroke-width="1"/>
  
  <ellipse cx="500" cy="125" rx="8" ry="12" fill="#A8E6CF"/>
  <line x1="500" y1="137" x2="500" y2="165" stroke="#333" stroke-width="1"/>
  
  <!-- Graduates (children in graduation caps) -->
  <!-- Graduate 1 -->
  <circle cx="200" cy="250" r="15" fill="#FFDBCB"/>
  <circle cx="195" cy="245" r="2" fill="#333"/>
  <circle cx="205" cy="245" r="2" fill="#333"/>
  <path d="M 195 250 Q 200 255 205 250" stroke="#333" stroke-width="1" fill="none"/>
  <!-- Graduation cap -->
  <rect x="185" y="235" width="30" height="8" fill="#000" rx="4"/>
  <rect x="190" y="230" width="20" height="5" fill="#000" rx="2"/>
  <rect x="195" y="225" width="10" height="3" fill="#FFD700"/>
  <!-- Body -->
  <rect x="185" y="265" width="30" height="40" fill="#000" rx="5"/>
  <rect x="180" y="305" width="15" height="25" fill="#4ECDC4" rx="2"/>
  <rect x="205" y="305" width="15" height="25" fill="#4ECDC4" rx="2"/>
  <rect x="175" y="330" width="20" height="8" fill="#333" rx="4"/>
  <rect x="205" y="330" width="20" height="8" fill="#333" rx="4"/>
  
  <!-- Graduate 2 -->
  <circle cx="280" cy="250" r="15" fill="#F4C2A1"/>
  <circle cx="275" cy="245" r="2" fill="#333"/>
  <circle cx="285" cy="245" r="2" fill="#333"/>
  <path d="M 275 250 Q 280 255 285 250" stroke="#333" stroke-width="1" fill="none"/>
  <!-- Graduation cap -->
  <rect x="265" y="235" width="30" height="8" fill="#000" rx="4"/>
  <rect x="270" y="230" width="20" height="5" fill="#000" rx="2"/>
  <rect x="275" y="225" width="10" height="3" fill="#FFD700"/>
  <!-- Body -->
  <rect x="265" y="265" width="30" height="40" fill="#000" rx="5"/>
  <rect x="260" y="305" width="15" height="25" fill="#FFE66D" rx="2"/>
  <rect x="285" y="305" width="15" height="25" fill="#FFE66D" rx="2"/>
  <rect x="255" y="330" width="20" height="8" fill="#333" rx="4"/>
  <rect x="285" y="330" width="20" height="8" fill="#333" rx="4"/>
  
  <!-- Graduate 3 -->
  <circle cx="360" cy="250" r="15" fill="#DDBEA9"/>
  <circle cx="355" cy="245" r="2" fill="#333"/>
  <circle cx="365" cy="245" r="2" fill="#333"/>
  <path d="M 355 250 Q 360 255 365 250" stroke="#333" stroke-width="1" fill="none"/>
  <!-- Graduation cap -->
  <rect x="345" y="235" width="30" height="8" fill="#000" rx="4"/>
  <rect x="350" y="230" width="20" height="5" fill="#000" rx="2"/>
  <rect x="355" y="225" width="10" height="3" fill="#FFD700"/>
  <!-- Body -->
  <rect x="345" y="265" width="30" height="40" fill="#000" rx="5"/>
  <rect x="340" y="305" width="15" height="25" fill="#FF8B94" rx="2"/>
  <rect x="365" y="305" width="15" height="25" fill="#FF8B94" rx="2"/>
  <rect x="335" y="330" width="20" height="8" fill="#333" rx="4"/>
  <rect x="365" y="330" width="20" height="8" fill="#333" rx="4"/>
  
  <!-- Graduate 4 -->
  <circle cx="440" cy="250" r="15" fill="#F7D794"/>
  <circle cx="435" cy="245" r="2" fill="#333"/>
  <circle cx="445" cy="245" r="2" fill="#333"/>
  <path d="M 435 250 Q 440 255 445 250" stroke="#333" stroke-width="1" fill="none"/>
  <!-- Graduation cap -->
  <rect x="425" y="235" width="30" height="8" fill="#000" rx="4"/>
  <rect x="430" y="230" width="20" height="5" fill="#000" rx="2"/>
  <rect x="435" y="225" width="10" height="3" fill="#FFD700"/>
  <!-- Body -->
  <rect x="425" y="265" width="30" height="40" fill="#000" rx="5"/>
  <rect x="420" y="305" width="15" height="25" fill="#C7CEEA" rx="2"/>
  <rect x="445" y="305" width="15" height="25" fill="#C7CEEA" rx="2"/>
  <rect x="415" y="330" width="20" height="8" fill="#333" rx="4"/>
  <rect x="445" y="330" width="20" height="8" fill="#333" rx="4"/>
  
  <!-- Principal/Teacher -->
  <circle cx="120" cy="240" r="18" fill="#F4C2A1"/>
  <circle cx="115" cy="235" r="2" fill="#333"/>
  <circle cx="125" cy="235" r="2" fill="#333"/>
  <path d="M 115 242 Q 120 247 125 242" stroke="#333" stroke-width="1" fill="none"/>
  <!-- Hair -->
  <path d="M 102 225 Q 120 210 138 225 Q 138 240 120 240 Q 102 240 102 225" fill="#8B4513"/>
  <!-- Body -->
  <rect x="102" y="258" width="36" height="50" fill="#4A90E2" rx="5"/>
  <rect x="95" y="308" width="18" height="30" fill="#2C3E50" rx="3"/>
  <rect x="127" y="308" width="18" height="30" fill="#2C3E50" rx="3"/>
  <rect x="90" y="338" width="25" height="10" fill="#000" rx="5"/>
  <rect x="125" y="338" width="25" height="10" fill="#000" rx="5"/>
  
  <!-- Diploma/Certificate -->
  <rect x="140" y="250" width="15" height="20" fill="#FFF" stroke="#FFD700" stroke-width="2" rx="2"/>
  <rect x="142" y="252" width="11" height="16" fill="#FFFACD" rx="1"/>
  
  <!-- Confetti -->
  <rect x="150" y="80" width="3" height="3" fill="#FF6B6B" transform="rotate(45 150 80)"/>
  <rect x="200" y="90" width="3" height="3" fill="#4ECDC4" transform="rotate(30 200 90)"/>
  <rect x="250" y="75" width="3" height="3" fill="#FFE66D" transform="rotate(60 250 75)"/>
  <rect x="300" y="85" width="3" height="3" fill="#A8E6CF" transform="rotate(15 300 85)"/>
  <rect x="350" y="95" width="3" height="3" fill="#FF8B94" transform="rotate(75 350 95)"/>
  <rect x="400" y="80" width="3" height="3" fill="#C7CEEA" transform="rotate(45 400 80)"/>
  <rect x="450" y="90" width="3" height="3" fill="#FFEAA7" transform="rotate(30 450 90)"/>
  
  <!-- More confetti -->
  <circle cx="180" cy="70" r="2" fill="#FF1493"/>
  <circle cx="220" cy="85" r="2" fill="#00CED1"/>
  <circle cx="280" cy="65" r="2" fill="#FFD700"/>
  <circle cx="320" cy="80" r="2" fill="#32CD32"/>
  <circle cx="380" cy="75" r="2" fill="#FF4500"/>
  <circle cx="420" cy="85" r="2" fill="#9370DB"/>
  
  <!-- Audience (parents) -->
  <!-- Parent 1 -->
  <circle cx="50" cy="350" r="12" fill="#D2B48C"/>
  <circle cx="47" cy="347" r="1.5" fill="#333"/>
  <circle cx="53" cy="347" r="1.5" fill="#333"/>
  <rect x="42" y="362" width="16" height="25" fill="#8B0000" rx="2"/>
  
  <!-- Parent 2 -->
  <circle cx="550" cy="350" r="12" fill="#F5DEB3"/>
  <circle cx="547" cy="347" r="1.5" fill="#333"/>
  <circle cx="553" cy="347" r="1.5" fill="#333"/>
  <rect x="542" y="362" width="16" height="25" fill="#000080" rx="2"/>
  
  <!-- Decorative elements -->
  <polygon points="300,50 305,60 315,60 307,67 310,77 300,70 290,77 293,67 285,60 295,60" fill="#FFD700" opacity="0.8"/>
  
  <!-- School logo/emblem -->
  <circle cx="300" cy="200" r="20" fill="#FFF" stroke="#FFD700" stroke-width="3"/>
  <text x="300" y="205" text-anchor="middle" fill="#333" font-family="Arial" font-size="12" font-weight="bold">TK</text>
  <text x="300" y="215" text-anchor="middle" fill="#333" font-family="Arial" font-size="8">Darussalam</text>
</svg>