<svg xmlns="http://www.w3.org/2000/svg" viewBox="0 0 400 300">
  <!-- Background -->
  <rect width="400" height="300" fill="#F0F8FF"/>
  
  <!-- Floor -->
  <rect x="0" y="220" width="400" height="80" fill="#F5F5DC"/>
  
  <!-- Blackboard -->
  <rect x="20" y="50" width="120" height="80" fill="#2E7D32" rx="5"/>
  <text x="80" y="80" text-anchor="middle" fill="white" font-family="Arial" font-size="12">ABC</text>
  <text x="80" y="100" text-anchor="middle" fill="white" font-family="Arial" font-size="12">123</text>
  <text x="80" y="120" text-anchor="middle" fill="white" font-family="Arial" font-size="10">🌟 ⭐ 🎨</text>
  
  <!-- Desks -->
  <rect x="180" y="160" width="40" height="25" fill="#8D6E63" rx="2"/>
  <rect x="175" y="185" width="10" height="20" fill="#6D4C41"/>
  <rect x="215" y="185" width="10" height="20" fill="#6D4C41"/>
  
  <rect x="250" y="160" width="40" height="25" fill="#8D6E63" rx="2"/>
  <rect x="245" y="185" width="10" height="20" fill="#6D4C41"/>
  <rect x="285" y="185" width="10" height="20" fill="#6D4C41"/>
  
  <rect x="320" y="160" width="40" height="25" fill="#8D6E63" rx="2"/>
  <rect x="315" y="185" width="10" height="20" fill="#6D4C41"/>
  <rect x="355" y="185" width="10" height="20" fill="#6D4C41"/>
  
  <!-- Children at desks -->
  <!-- Child 1 -->
  <circle cx="200" cy="140" r="10" fill="#FFDBCB"/>
  <circle cx="197" cy="137" r="1" fill="#333"/>
  <circle cx="203" cy="137" r="1" fill="#333"/>
  <path d="M 197 142 Q 200 145 203 142" stroke="#333" stroke-width="1" fill="none"/>
  <rect x="192" y="150" width="16" height="18" fill="#FF6B6B" rx="2"/>
  <rect x="189" y="168" width="6" height="12" fill="#4ECDC4" rx="1"/>
  <rect x="205" y="168" width="6" height="12" fill="#4ECDC4" rx="1"/>
  
  <!-- Child 2 -->
  <circle cx="270" cy="140" r="10" fill="#F4C2A1"/>
  <circle cx="267" cy="137" r="1" fill="#333"/>
  <circle cx="273" cy="137" r="1" fill="#333"/>
  <path d="M 267 142 Q 270 145 273 142" stroke="#333" stroke-width="1" fill="none"/>
  <rect x="262" y="150" width="16" height="18" fill="#A8E6CF" rx="2"/>
  <rect x="259" y="168" width="6" height="12" fill="#FFE66D" rx="1"/>
  <rect x="275" y="168" width="6" height="12" fill="#FFE66D" rx="1"/>
  
  <!-- Child 3 -->
  <circle cx="340" cy="140" r="10" fill="#DDBEA9"/>
  <circle cx="337" cy="137" r="1" fill="#333"/>
  <circle cx="343" cy="137" r="1" fill="#333"/>
  <path d="M 337 142 Q 340 145 343 142" stroke="#333" stroke-width="1" fill="none"/>
  <rect x="332" y="150" width="16" height="18" fill="#C7CEEA" rx="2"/>
  <rect x="329" y="168" width="6" height="12" fill="#FF8B94" rx="1"/>
  <rect x="345" y="168" width="6" height="12" fill="#FF8B94" rx="1"/>
  
  <!-- Teacher -->
  <circle cx="80" cy="160" r="12" fill="#F7D794"/>
  <circle cx="77" cy="157" r="1.5" fill="#333"/>
  <circle cx="83" cy="157" r="1.5" fill="#333"/>
  <path d="M 77 162 Q 80 165 83 162" stroke="#333" stroke-width="1" fill="none"/>
  <rect x="72" y="172" width="16" height="20" fill="#4A90E2" rx="2"/>
  <rect x="69" y="192" width="6" height="15" fill="#2C3E50" rx="1"/>
  <rect x="85" y="192" width="6" height="15" fill="#2C3E50" rx="1"/>
  
  <!-- Books on desks -->
  <rect x="185" y="155" width="5" height="8" fill="#E74C3C" rx="1"/>
  <rect x="192" y="155" width="5" height="8" fill="#3498DB" rx="1"/>
  
  <rect x="255" y="155" width="5" height="8" fill="#9B59B6" rx="1"/>
  <rect x="262" y="155" width="5" height="8" fill="#2ECC71" rx="1"/>
  
  <rect x="325" y="155" width="5" height="8" fill="#F39C12" rx="1"/>
  <rect x="332" y="155" width="5" height="8" fill="#E67E22" rx="1"/>
  
  <!-- Window -->
  <rect x="300" y="60" width="80" height="60" fill="#87CEEB" rx="3"/>
  <rect x="305" y="65" width="70" height="50" fill="#B0E0E6" rx="2"/>
  <line x1="340" y1="65" x2="340" y2="115" stroke="#4682B4" stroke-width="2"/>
  <line x1="305" y1="90" x2="375" y2="90" stroke="#4682B4" stroke-width="2"/>
  
  <!-- Educational posters -->
  <rect x="160" y="30" width="50" height="40" fill="#FFF" stroke="#DDD" stroke-width="1" rx="2"/>
  <text x="185" y="45" text-anchor="middle" fill="#333" font-family="Arial" font-size="8">Colors</text>
  <circle cx="175" cy="55" r="4" fill="#FF0000"/>
  <circle cx="185" cy="55" r="4" fill="#00FF00"/>
  <circle cx="195" cy="55" r="4" fill="#0000FF"/>
  
  <!-- Decorative elements -->
  <circle cx="50" cy="30" r="6" fill="#FFD700" opacity="0.7"/>
  <circle cx="350" cy="30" r="6" fill="#FF69B4" opacity="0.7"/>
  <circle cx="30" cy="200" r="6" fill="#32CD32" opacity="0.7"/>
  <circle cx="370" cy="200" r="6" fill="#FF4500" opacity="0.7"/>
  
  <!-- Stars -->
  <polygon points="100,20 103,27 110,27 105,32 107,39 100,35 93,39 95,32 90,27 97,27" fill="#FFD700" opacity="0.8"/>
  <polygon points="300,20 303,27 310,27 305,32 307,39 300,35 293,39 295,32 290,27 297,27" fill="#FF69B4" opacity="0.8"/>
</svg>