<svg xmlns="http://www.w3.org/2000/svg" viewBox="0 0 400 300">
  <!-- Background -->
  <rect width="400" height="300" fill="#F0F8FF"/>
  
  <!-- Floor -->
  <rect x="0" y="220" width="400" height="80" fill="#E6E6FA"/>
  
  <!-- Music room setup -->
  <!-- Piano -->
  <rect x="50" y="160" width="80" height="60" fill="#2F4F4F" rx="5"/>
  <rect x="55" y="165" width="70" height="35" fill="#000" rx="3"/>
  <!-- Piano keys -->
  <rect x="60" y="170" width="4" height="15" fill="#FFF"/>
  <rect x="65" y="170" width="4" height="15" fill="#FFF"/>
  <rect x="70" y="170" width="4" height="15" fill="#FFF"/>
  <rect x="75" y="170" width="4" height="15" fill="#FFF"/>
  <rect x="80" y="170" width="4" height="15" fill="#FFF"/>
  <rect x="85" y="170" width="4" height="15" fill="#FFF"/>
  <rect x="90" y="170" width="4" height="15" fill="#FFF"/>
  <rect x="95" y="170" width="4" height="15" fill="#FFF"/>
  <rect x="100" y="170" width="4" height="15" fill="#FFF"/>
  <rect x="105" y="170" width="4" height="15" fill="#FFF"/>
  <rect x="110" y="170" width="4" height="15" fill="#FFF"/>
  <rect x="115" y="170" width="4" height="15" fill="#FFF"/>
  <!-- Black keys -->
  <rect x="62" y="170" width="2" height="10" fill="#000"/>
  <rect x="67" y="170" width="2" height="10" fill="#000"/>
  <rect x="77" y="170" width="2" height="10" fill="#000"/>
  <rect x="82" y="170" width="2" height="10" fill="#000"/>
  <rect x="87" y="170" width="2" height="10" fill="#000"/>
  
  <!-- Piano legs -->
  <rect x="55" y="220" width="8" height="30" fill="#2F4F4F"/>
  <rect x="117" y="220" width="8" height="30" fill="#2F4F4F"/>
  
  <!-- Child playing piano -->
  <circle cx="90" cy="130" r="12" fill="#FFDBCB"/>
  <circle cx="87" cy="127" r="1.5" fill="#333"/>
  <circle cx="93" cy="127" r="1.5" fill="#333"/>
  <path d="M 87 132 Q 90 135 93 132" stroke="#333" stroke-width="1" fill="none"/>
  <!-- Hair -->
  <path d="M 78 125 Q 90 115 102 125" fill="#8B4513"/>
  <rect x="82" y="142" width="16" height="20" fill="#FF6B6B" rx="2"/>
  <rect x="79" y="162" width="6" height="15" fill="#4ECDC4" rx="1"/>
  <rect x="95" y="162" width="6" height="15" fill="#4ECDC4" rx="1"/>
  <!-- Arms reaching for piano -->
  <rect x="74" y="145" width="12" height="4" fill="#FFDBCB" rx="2"/>
  <rect x="94" y="145" width="12" height="4" fill="#FFDBCB" rx="2"/>
  
  <!-- Drum set -->
  <circle cx="200" cy="190" r="25" fill="#8B0000" stroke="#654321" stroke-width="3"/>
  <circle cx="200" cy="165" r="15" fill="#8B0000" stroke="#654321" stroke-width="2"/>
  <circle cx="180" cy="175" r="12" fill="#8B0000" stroke="#654321" stroke-width="2"/>
  <circle cx="220" cy="175" r="12" fill="#8B0000" stroke="#654321" stroke-width="2"/>
  <!-- Drum stands -->
  <rect x="198" y="215" width="4" height="35" fill="#C0C0C0"/>
  <rect x="178" y="187" width="4" height="33" fill="#C0C0C0"/>
  <rect x="218" y="187" width="4" height="33" fill="#C0C0C0"/>
  
  <!-- Child playing drums -->
  <circle cx="200" cy="120" r="12" fill="#F4C2A1"/>
  <circle cx="197" cy="117" r="1.5" fill="#333"/>
  <circle cx="203" cy="117" r="1.5" fill="#333"/>
  <path d="M 197 122 Q 200 125 203 122" stroke="#333" stroke-width="1" fill="none"/>
  <!-- Hair -->
  <path d="M 188 115 Q 200 105 212 115" fill="#2F4F4F"/>
  <rect x="192" y="132" width="16" height="20" fill="#A8E6CF" rx="2"/>
  <rect x="189" y="152" width="6" height="15" fill="#FFE66D" rx="1"/>
  <rect x="205" y="152" width="6" height="15" fill="#FFE66D" rx="1"/>
  <!-- Arms with drumsticks -->
  <rect x="180" y="135" width="15" height="4" fill="#F4C2A1" rx="2"/>
  <rect x="205" y="135" width="15" height="4" fill="#F4C2A1" rx="2"/>
  <!-- Drumsticks -->
  <rect x="175" y="133" width="12" height="2" fill="#8B4513"/>
  <rect x="220" y="133" width="12" height="2" fill="#8B4513"/>
  <circle cx="174" cy="134" r="2" fill="#DDD"/>
  <circle cx="232" cy="134" r="2" fill="#DDD"/>
  
  <!-- Guitar -->
  <ellipse cx="320" cy="180" rx="20" ry="35" fill="#D2691E"/>
  <ellipse cx="320" cy="180" rx="15" ry="30" fill="#F4A460"/>
  <circle cx="320" cy="180" r="8" fill="#2F4F4F"/>
  <rect x="318" y="145" width="4" height="35" fill="#8B4513"/>
  <!-- Guitar strings -->
  <line x1="320" y1="145" x2="320" y2="215" stroke="#C0C0C0" stroke-width="1"/>
  <line x1="318" y1="145" x2="318" y2="215" stroke="#C0C0C0" stroke-width="1"/>
  <line x1="322" y1="145" x2="322" y2="215" stroke="#C0C0C0" stroke-width="1"/>
  
  <!-- Child with guitar -->
  <circle cx="320" cy="110" r="12" fill="#DDBEA9"/>
  <circle cx="317" cy="107" r="1.5" fill="#333"/>
  <circle cx="323" cy="107" r="1.5" fill="#333"/>
  <path d="M 317 112 Q 320 115 323 112" stroke="#333" stroke-width="1" fill="none"/>
  <!-- Hair -->
  <path d="M 308 105 Q 320 95 332 105" fill="#FFD700"/>
  <rect x="312" y="122" width="16" height="20" fill="#C7CEEA" rx="2"/>
  <rect x="309" y="142" width="6" height="15" fill="#FF8B94" rx="1"/>
  <rect x="325" y="142" width="6" height="15" fill="#FF8B94" rx="1"/>
  <!-- Arms holding guitar -->
  <rect x="300" y="125" width="12" height="4" fill="#DDBEA9" rx="2"/>
  <rect x="328" y="125" width="12" height="4" fill="#DDBEA9" rx="2"/>
  
  <!-- Music notes floating in air -->
  <text x="150" y="50" fill="#4169E1" font-family="Arial" font-size="20">♪</text>
  <text x="250" y="40" fill="#FF1493" font-family="Arial" font-size="16">♫</text>
  <text x="100" y="70" fill="#32CD32" font-family="Arial" font-size="18">♪</text>
  <text x="300" y="60" fill="#FF4500" font-family="Arial" font-size="14">♫</text>
  <text x="180" y="80" fill="#9370DB" font-family="Arial" font-size="16">♪</text>
  <text x="350" y="90" fill="#FF69B4" font-family="Arial" font-size="12">♫</text>
  
  <!-- Music stand -->
  <rect x="140" y="120" width="30" height="40" fill="#FFF" stroke="#333" stroke-width="2" rx="2"/>
  <rect x="153" y="160" width="4" height="60" fill="#333"/>
  <rect x="148" y="215" width="16" height="5" fill="#333" rx="2"/>
  
  <!-- Sheet music -->
  <line x1="145" y1="130" x2="165" y2="130" stroke="#333" stroke-width="1"/>
  <line x1="145" y1="135" x2="165" y2="135" stroke="#333" stroke-width="1"/>
  <line x1="145" y1="140" x2="165" y2="140" stroke="#333" stroke-width="1"/>
  <line x1="145" y1="145" x2="165" y2="145" stroke="#333" stroke-width="1"/>
  <line x1="145" y1="150" x2="165" y2="150" stroke="#333" stroke-width="1"/>
  <circle cx="148" cy="133" r="2" fill="#333"/>
  <circle cx="152" cy="138" r="2" fill="#333"/>
  <circle cx="158" cy="135" r="2" fill="#333"/>
  <circle cx="162" cy="142" r="2" fill="#333"/>
  
  <!-- Xylophone -->
  <rect x="260" y="200" width="60" height="20" fill="#8B4513" rx="3"/>
  <!-- Xylophone bars -->
  <rect x="265" y="205" width="6" height="10" fill="#FFD700"/>
  <rect x="272" y="205" width="6" height="10" fill="#FF6347"/>
  <rect x="279" y="205" width="6" height="10" fill="#32CD32"/>
  <rect x="286" y="205" width="6" height="10" fill="#1E90FF"/>
  <rect x="293" y="205" width="6" height="10" fill="#FF69B4"/>
  <rect x="300" y="205" width="6" height="10" fill="#9370DB"/>
  <rect x="307" y="205" width="6" height="10" fill="#FF4500"/>
  
  <!-- Mallets -->
  <rect x="275" y="190" width="2" height="15" fill="#8B4513"/>
  <circle cx="276" cy="188" r="3" fill="#FFF"/>
  <rect x="290" y="190" width="2" height="15" fill="#8B4513"/>
  <circle cx="291" cy="188" r="3" fill="#FFF"/>
  
  <!-- Teacher conducting -->
  <circle cx="50" cy="80" r="15" fill="#F4C2A1"/>
  <circle cx="46" cy="76" r="2" fill="#333"/>
  <circle cx="54" cy="76" r="2" fill="#333"/>
  <path d="M 46 82 Q 50 86 54 82" stroke="#333" stroke-width="1" fill="none"/>
  <!-- Hair -->
  <path d="M 35 75 Q 50 60 65 75" fill="#654321"/>
  <rect x="42" y="95" width="16" height="25" fill="#4169E1" rx="2"/>
  <rect x="39" y="120" width="6" height="20" fill="#2F4F4F" rx="1"/>
  <rect x="55" y="120" width="6" height="20" fill="#2F4F4F" rx="1"/>
  <!-- Arms conducting -->
  <rect x="25" y="98" width="18" height="5" fill="#F4C2A1" rx="2"/>
  <rect x="57" y="98" width="18" height="5" fill="#F4C2A1" rx="2"/>
  <!-- Conductor's baton -->
  <rect x="20" y="95" width="12" height="2" fill="#333"/>
  <circle cx="19" cy="96" r="2" fill="#FFD700"/>
  
  <!-- Decorative musical border -->
  <rect x="10" y="10" width="380" height="20" fill="#E6E6FA" rx="10"/>
  <text x="200" y="24" text-anchor="middle" fill="#4B0082" font-family="Arial" font-size="14" font-weight="bold">🎵 Music Class 🎵</text>
  
  <!-- Sound waves -->
  <path d="M 370 100 Q 375 95 380 100 Q 385 105 390 100" stroke="#FF69B4" stroke-width="2" fill="none" opacity="0.6"/>
  <path d="M 370 110 Q 375 105 380 110 Q 385 115 390 110" stroke="#32CD32" stroke-width="2" fill="none" opacity="0.6"/>
  <path d="M 370 120 Q 375 115 380 120 Q 385 125 390 120" stroke="#1E90FF" stroke-width="2" fill="none" opacity="0.6"/>
</svg>